<svg width="39" height="29" viewBox="0 0 39 29" fill="none" xmlns="http://www.w3.org/2000/svg">
<path d="M4.088 12.056V23H0.776V5.96H3.416L12.224 17.192V5.984H15.536V23H12.776L4.088 12.056ZM27.7847 28.96C25.7314 28.96 23.878 28.52 22.2247 27.64C20.5714 26.76 19.318 25.56 18.4647 24.04L21.5447 20.84C22.2914 21.88 23.2247 22.7067 24.3447 23.32C25.4647 23.9333 26.6247 24.24 27.8247 24.24C28.7847 24.24 29.6247 24.04 30.3447 23.64C31.0914 23.24 31.678 22.68 32.1047 21.96C32.5314 21.24 32.7447 20.4133 32.7447 19.48C32.7447 18.5467 32.5447 17.7333 32.1447 17.04C31.7447 16.3467 31.198 15.8133 30.5047 15.44C29.8114 15.04 29.0247 14.84 28.1447 14.84C27.2647 14.84 26.438 15.04 25.6647 15.44C24.918 15.8133 24.318 16.36 23.8647 17.08H19.1847L22.4647 0.159998H36.4647V5.04H26.3447L25.1847 11.4C25.5314 11.08 26.0114 10.8133 26.6247 10.6C27.238 10.36 27.998 10.24 28.9047 10.24C30.6914 10.24 32.2914 10.6267 33.7047 11.4C35.118 12.1733 36.2247 13.2533 37.0247 14.64C37.8247 16 38.2247 17.5733 38.2247 19.36C38.2247 21.2533 37.7714 22.92 36.8647 24.36C35.958 25.8267 34.718 26.96 33.1447 27.76C31.5714 28.56 29.7847 28.96 27.7847 28.96Z" fill="#F18521"/>
</svg>
