<svg width="20" height="18" viewBox="0 0 20 18" fill="none" xmlns="http://www.w3.org/2000/svg">
<path d="M3.34637 0C3.74724 0 4.09234 0.286246 4.16902 0.681887L4.22131 1.11842H18.8861C19.5937 1.11842 20.1584 1.82617 19.9597 2.53951L18.0774 9.25144C17.9414 9.73376 17.5022 10.0658 17.0038 10.0658H5.95027L6.27097 11.7434H17.0107C17.4743 11.7434 17.8473 12.1174 17.8473 12.5822C17.8473 13.0471 17.4743 13.4211 17.0107 13.4211H5.54592C5.17642 13.4211 4.83133 13.1345 4.75464 12.7395L2.65409 1.67763H0.836594C0.374724 1.67763 0 1.30191 0 0.838816C0 0.37572 0.374724 0 0.836594 0H3.34637ZM4.46183 16.2171C4.46183 15.2909 5.21128 14.5395 6.13502 14.5395C7.05876 14.5395 7.80821 15.2909 7.80821 16.2171C7.80821 17.1433 7.05876 17.8947 6.13502 17.8947C5.21128 17.8947 4.46183 17.1433 4.46183 16.2171ZM17.8473 16.2171C17.8473 17.1433 17.0979 17.8947 16.1741 17.8947C15.2504 17.8947 14.501 17.1433 14.501 16.2171C14.501 15.2909 15.2504 14.5395 16.1741 14.5395C17.0979 14.5395 17.8473 15.2909 17.8473 16.2171Z" fill="#FFAD62"/>
</svg>
